<?xml version="1.0" encoding="UTF-8"?>
<svg id="Layer_2" data-name="Layer 2" xmlns="http://www.w3.org/2000/svg" viewBox="0 0 187.99 34.58">
  <defs>
    <style>
      .cls-1 {
        fill: #fff;
      }
    </style>
  </defs>
  <g id="Frente">
    <g>
      <path class="cls-1" d="M186.74,3.41s0-.05,0-.07v-.23c0-.26-.07-.45-.22-.57-.08-.06-.2-.11-.36-.15.17-.02.32-.08.44-.17.12-.09.18-.25.18-.46,0-.28-.11-.48-.34-.6-.13-.07-.3-.12-.5-.13-.04,0-.21,0-.52,0-.31,0-.55,0-.7,0v2.53h.66v-.9h.28c.1.02.18.03.23.05.09.03.15.1.19.19.02.05.03.16.04.31,0,.15.02.27.04.35h.63l-.02-.07s-.01-.05-.02-.07ZM185.99,2.11c-.09.06-.21.09-.36.09h-.26v-.73h.16c.17,0,.29.02.38.05.14.05.2.15.2.29s-.04.24-.13.3ZM187.32.67c-.45-.45-.98-.67-1.61-.67s-1.12.21-1.57.62c-.47.44-.71,1-.71,1.66s.22,1.18.66,1.62c.44.44.98.66,1.62.66s1.15-.21,1.6-.64c.46-.44.68-.99.68-1.64s-.22-1.17-.67-1.61ZM187.03,3.63c-.37.37-.81.56-1.33.56s-.96-.18-1.33-.55c-.37-.37-.55-.82-.55-1.35s.18-.95.55-1.32c.37-.38.82-.57,1.34-.57s.96.19,1.33.57c.37.37.55.81.55,1.32s-.18.97-.55,1.34Z"/>
      <path class="cls-1" d="M142.53,0l3.83,3.83v5.05h-12.32v25.69h-8.88V8.88h-12.32V0h29.68ZM64.58.09l7.13,7.13v20.23l-7.13,7.13h-20.23l-7.13-7.13v-9.58l23.92-8.9h-11.46,0s-9.04,0-9.04,0V.09h23.93ZM62.83,17.81l-16.72,6.02v.35l1.91,1.49h12.89l1.92-2.05v-5.81ZM182.19,7.22v20.23l-7.13,7.13h-20.23l-7.13-7.13v-9.58l23.92-8.9h-11.46,0s-9.04,0-9.04,0V.09h23.93l7.13,7.13ZM173.31,17.81l-16.72,6.02v.35l1.91,1.49h12.89l1.92-2.05v-5.81ZM27.36.09l7.13,7.13v11.67s-25.61,8.9-25.61,8.9v6.79H0V7.22L7.13.09h20.23ZM25.61,10.48l-1.91-1.49h-12.89l-1.92,2.05v7.9l16.72-6.02v-2.44ZM102.9.09l7.13,7.13v11.67h0l-9.3,3.23,9.3,5.52v6.94h-5.71l-14.56-8.65-5.34,1.85v6.79h-8.88V7.22L82.67.09h20.23ZM101.15,10.48l-1.91-1.49h-12.89l-1.92,2.05v7.9l16.72-6.02v-2.44Z"/>
    </g>
  </g>
</svg>