<?xml version="1.0" encoding="UTF-8"?>
<svg id="Layer_1" xmlns="http://www.w3.org/2000/svg" xmlns:xlink="http://www.w3.org/1999/xlink" version="1.1" viewBox="0 0 1920.5 1080">
  <!-- Generator: Adobe Illustrator 30.7.0, SVG Export Plug-In . SVG Version: 2.1.4 Build 114)  -->
  <defs>
    <style>
      .st0 {
        isolation: isolate;
      }

      .st1 {
        stroke: #fff;
        stroke-miterlimit: 10;
      }

      .st2 {
        display: none;
      }
    </style>
  </defs>
  <g id="Layer_11" data-name="Layer_1" class="st2">
    <image class="st0" width="1920" height="1080" transform="translate(.5)" xlink:href="imagen-neutral.webp"/>
  </g>
  <g id="Layer_2">
    <polygon class="st1" points="1722.5 641.2 1279.9 1004 529 710.8 657.7 605.1 1233 829 1464.7 642.4 1722.5 641.2"/>
    <polygon class="st1" points="1440.4 629.2 1227.4 807.3 764 625.9 988.5 450.5 1440.4 629.2"/>
    <polygon class="st1" points=".5 360.1 33.9 335.9 148 380.5 148 406.4 657.7 605.1 529 710.8 169.5 574.3 218.5 535.5 .5 450.5 .5 360.1"/>
    <polygon class="st1" points="346.5 462.9 560.7 289.1 964 441.7 745.4 617.5 346.5 462.9"/>
    <polygon class="st1" points="1761.1 582.7 1754.1 601.8 1452.1 609.3 1576.6 505 1761.1 582.7"/>
    <polygon class="st1" points="582.8 272.1 712.4 163.3 1576.6 505 1452.1 609.3 582.8 272.1"/>
  </g>
  <polygon class="st1" points="676.6 163.3 667 157.9 667 123.3 433.2 40.6 54.2 343.8 315.1 450.5 676.6 163.3"/>
</svg>