<?xml version="1.0" encoding="UTF-8"?>
<svg id="Layer_2" data-name="Layer 2" xmlns="http://www.w3.org/2000/svg" viewBox="0 0 1173.37 633.72">
  <defs>
    <style>
      .cls-1 {
        fill: none;
        stroke: #272525;
        stroke-miterlimit: 10;
      }
    </style>
  </defs>
  <g id="Layer_3" data-name="Layer 3">
    <rect class="cls-1" x="316.43" y=".5" width="60.58" height="154"/>
    <path class="cls-1" d="M267.85.5h48.58v154h-48.58c-6.62,0-12-5.38-12-12V12.5c0-6.62,5.38-12,12-12Z"/>
    <path class="cls-1" d="M267.85,182.44h71.47v65.92h-83.47v-53.92c0-6.62,5.38-12,12-12Z"/>
    <rect class="cls-1" x="339.32" y="182.44" width="83.47" height="131.85"/>
    <rect class="cls-1" x="422.8" y="182.44" width="83.47" height="131.85"/>
    <rect class="cls-1" x="339.32" y="314.28" width="83.47" height="131.85"/>
    <rect class="cls-1" x="422.8" y="314.28" width="83.47" height="131.85"/>
    <path class="cls-1" d="M506.27,182.44h71.47c6.62,0,12,5.38,12,12v53.92h-83.47v-65.92h0Z"/>
    <rect class="cls-1" x="506.27" y="248.36" width="83.47" height="65.92"/>
    <rect class="cls-1" x="506.27" y="314.28" width="83.47" height="65.92"/>
    <path class="cls-1" d="M506.27,380.21h83.47v53.92c0,6.62-5.38,12-12,12h-71.47v-65.92h0Z"/>
    <rect class="cls-1" x="255.85" y="248.36" width="83.47" height="65.92"/>
    <rect class="cls-1" x="255.85" y="314.28" width="83.47" height="65.92"/>
    <path class="cls-1" d="M255.85,380.21h83.47v65.92h-71.47c-6.62,0-12-5.38-12-12v-53.92h0Z"/>
    <path class="cls-1" d="M628.46,182.44h70.07v65.92h-82.07v-53.92c0-6.62,5.38-12,12-12Z"/>
    <rect class="cls-1" x="698.54" y="182.44" width="72.8" height="131.85"/>
    <rect class="cls-1" x="771.34" y="182.44" width="74.17" height="131.85"/>
    <rect class="cls-1" x="698.54" y="314.28" width="72.8" height="131.85"/>
    <rect class="cls-1" x="771.34" y="314.28" width="74.17" height="131.85"/>
    <rect class="cls-1" x="845.51" y="182.44" width="74.17" height="131.85"/>
    <rect class="cls-1" x="845.51" y="314.28" width="74.17" height="131.85"/>
    <path class="cls-1" d="M919.68,182.44h63.83c6.62,0,12,5.38,12,12v53.92h-75.83v-65.92h0Z"/>
    <rect class="cls-1" x="1025.18" y="215.4" width="147.69" height="59.69"/>
    <path class="cls-1" d="M1172.87,215.4h-147.69v-29.33s.3-8.98,5.57-14.05,142.13-136.95,142.13-136.95v180.34Z"/>
    <rect class="cls-1" x="1025.18" y="275.09" width="147.69" height="59.69"/>
    <rect class="cls-1" x="1025.18" y="334.78" width="147.69" height="59.69"/>
    <rect class="cls-1" x="1025.18" y="394.46" width="147.69" height="64.96"/>
    <rect class="cls-1" x="1025.18" y="459.43" width="147.69" height="62.71"/>
    <rect class="cls-1" x="1025.18" y="522.14" width="147.69" height="59.69"/>
    <rect class="cls-1" x="1025.18" y="581.83" width="147.69" height="51.39"/>
    <rect class="cls-1" x="919.68" y="248.36" width="75.83" height="65.92"/>
    <rect class="cls-1" x="919.68" y="314.28" width="75.83" height="65.92"/>
    <path class="cls-1" d="M919.68,380.21h75.83v53.92c0,6.62-5.38,12-12,12h-63.83v-65.92h0Z"/>
    <rect class="cls-1" x="616.46" y="248.36" width="82.07" height="65.92"/>
    <rect class="cls-1" x="616.46" y="314.28" width="82.07" height="65.92"/>
    <path class="cls-1" d="M616.46,380.21h82.07v65.92h-70.07c-6.62,0-12-5.38-12-12v-53.92h0Z"/>
    <rect class="cls-1" x=".5" y=".5" width="229.78" height="154" rx="12" ry="12"/>
    <path class="cls-1" d="M12.5,182.44h205.78c6.62,0,12,5.38,12,12v119.85H.5v-119.85c0-6.62,5.38-12,12-12Z"/>
    <path class="cls-1" d="M.5,314.28h229.78v119.85c0,6.62-5.38,12-12,12H12.5c-6.62,0-12-5.38-12-12v-119.85h0Z"/>
    <rect class="cls-1" x="377.01" y=".5" width="60.58" height="154"/>
    <rect class="cls-1" x="437.59" y=".5" width="59.14" height="154"/>
    <rect class="cls-1" x="496.73" y=".5" width="59.14" height="154"/>
    <rect class="cls-1" x="555.87" y=".5" width="59.14" height="154"/>
    <rect class="cls-1" x="615.01" y=".5" width="77.18" height="154"/>
    <rect class="cls-1" x="692.19" y=".5" width="75.83" height="154"/>
    <rect class="cls-1" x="768.02" y=".5" width="75.83" height="154"/>
    <rect class="cls-1" x="843.85" y=".5" width="75.83" height="154"/>
    <rect class="cls-1" x="919.68" y=".5" width="75.83" height="154"/>
    <polygon class="cls-1" points="995.5 154.5 995.5 .5 1163.43 .5 995.5 154.5"/>
    <rect class="cls-1" x="537.5" y="476.33" width="61.48" height="156.89"/>
    <rect class="cls-1" x="476.02" y="476.33" width="61.48" height="156.89"/>
    <rect class="cls-1" x="409.26" y="476.33" width="66.75" height="156.89"/>
    <rect class="cls-1" x="359.58" y="476.33" width="49.68" height="156.89"/>
    <rect class="cls-1" x="295.29" y="476.33" width="64.3" height="156.89"/>
    <rect class="cls-1" x="235.04" y="476.33" width="60.24" height="156.89"/>
    <path class="cls-1" d="M12.5,476.33h48.24v114.34H.5v-102.34c0-6.62,5.38-12,12-12Z"/>
    <rect class="cls-1" x="60.74" y="476.33" width="60.24" height="114.34"/>
    <rect class="cls-1" x="120.99" y="476.33" width="57.03" height="114.34"/>
    <rect class="cls-1" x="178.01" y="476.33" width="57.03" height="114.34"/>
    <rect class="cls-1" x="598.98" y="476.33" width="70.69" height="156.89"/>
    <rect class="cls-1" x="669.67" y="476.33" width="75.83" height="156.89"/>
    <rect class="cls-1" x="745.49" y="476.33" width="75.83" height="156.89"/>
    <rect class="cls-1" x="821.32" y="476.33" width="75.83" height="156.89"/>
    <path class="cls-1" d="M897.15,476.33h86.35c6.62,0,12,5.38,12,12v132.89c0,6.62-5.38,12-12,12h-86.35v-156.89h0Z"/>
  </g>
</svg>