<?xml version="1.0" encoding="UTF-8"?>
<svg xmlns="http://www.w3.org/2000/svg" xmlns:xlink="http://www.w3.org/1999/xlink" version="1.1" viewBox="0 0 2088.9 1163.8">
  <!-- Generator: Adobe Illustrator 30.6.0, SVG Export Plug-In . SVG Version: 2.1.4 Build 109)  -->
  <defs>
    <style>
      .st0, .st1 {
        fill: none;
      }

      .st1 {
        stroke: #2ebc82;
        stroke-miterlimit: 10;
      }

      .st2 {
        display: none;
      }

      .st3 {
        clip-path: url(#clippath);
      }
    </style>
    <clipPath id="clippath">
      <rect class="st0" x="11.4" y="63.1" width="1920" height="1080"/>
    </clipPath>
  </defs>
  <g id="Layer_1" class="st2">
    <g class="st3">
      <image width="1680" height="936" transform="scale(1.2)" xlink:href="mapa-loteo-editable-1.png"/>
    </g>
  </g>
  <g id="Layer_2">
    <g id="Layer_21" data-name="Layer_2">
      <rect class="st1" x="430.9" y="331.2" width="60.6" height="154"/>
      <path class="st1" d="M382.3,331.2h48.6v154h-48.6c-6.6,0-12-5.4-12-12v-130c0-6.6,5.4-12,12-12Z"/>
      <path class="st1" d="M382.3,513.1h71.5v65.9h-83.5v-53.9c0-6.6,5.4-12,12-12Z"/>
      <rect class="st1" x="453.8" y="513.1" width="83.5" height="131.8"/>
      <rect class="st1" x="537.3" y="513.1" width="83.5" height="131.8"/>
      <rect class="st1" x="453.8" y="645" width="83.5" height="131.8"/>
      <rect class="st1" x="537.3" y="645" width="83.5" height="131.8"/>
      <path class="st1" d="M620.8,513.1h71.5c6.6,0,12,5.4,12,12v53.9h-83.5v-65.9h0Z"/>
      <rect class="st1" x="620.8" y="579" width="83.5" height="65.9"/>
      <rect class="st1" x="620.8" y="645" width="83.5" height="65.9"/>
      <path class="st1" d="M620.8,710.9h83.5v53.9c0,6.6-5.4,12-12,12h-71.5v-65.9h0Z"/>
      <rect class="st1" x="370.3" y="579" width="83.5" height="65.9"/>
      <rect class="st1" x="370.3" y="645" width="83.5" height="65.9"/>
      <path class="st1" d="M370.3,710.9h83.5v65.9h-71.5c-6.6,0-12-5.4-12-12v-53.9h0Z"/>
      <path class="st1" d="M742.9,513.1h70.1v65.9h-82.1v-53.9c0-6.6,5.4-12,12-12Z"/>
      <rect class="st1" x="813" y="513.1" width="72.8" height="131.8"/>
      <rect class="st1" x="885.8" y="513.1" width="74.2" height="131.8"/>
      <rect class="st1" x="813" y="645" width="72.8" height="131.8"/>
      <rect class="st1" x="885.8" y="645" width="74.2" height="131.8"/>
      <rect class="st1" x="960" y="513.1" width="74.2" height="131.8"/>
      <rect class="st1" x="960" y="645" width="74.2" height="131.8"/>
      <path class="st1" d="M1034.2,513.1h63.8c6.6,0,12,5.4,12,12v53.9h-75.8v-65.9h0Z"/>
      <rect class="st1" x="1139.7" y="546.1" width="147.7" height="59.7"/>
      <path class="st1" d="M1287.4,546.1h-147.7v-29.3s.3-9,5.6-14.1c5.3-5.1,142.1-137,142.1-137v180.3h0Z"/>
      <rect class="st1" x="1139.7" y="605.8" width="147.7" height="59.7"/>
      <rect class="st1" x="1139.7" y="665.5" width="147.7" height="59.7"/>
      <rect class="st1" x="1139.7" y="725.1" width="147.7" height="65"/>
      <rect class="st1" x="1139.7" y="790.1" width="147.7" height="62.7"/>
      <rect class="st1" x="1139.7" y="852.8" width="147.7" height="59.7"/>
      <rect class="st1" x="1139.7" y="912.5" width="147.7" height="51.4"/>
      <rect class="st1" x="1034.2" y="579" width="75.8" height="65.9"/>
      <rect class="st1" x="1034.2" y="645" width="75.8" height="65.9"/>
      <path class="st1" d="M1034.2,710.9h75.8v53.9c0,6.6-5.4,12-12,12h-63.8v-65.9h0Z"/>
      <rect class="st1" x="730.9" y="579" width="82.1" height="65.9"/>
      <rect class="st1" x="730.9" y="645" width="82.1" height="65.9"/>
      <path class="st1" d="M730.9,710.9h82.1v65.9h-70.1c-6.6,0-12-5.4-12-12v-53.9h0Z"/>
      <rect class="st1" x="115" y="331.2" width="229.8" height="154" rx="12" ry="12"/>
      <path class="st1" d="M127,513.1h205.8c6.6,0,12,5.4,12,12v119.8H115v-119.8c0-6.6,5.4-12,12-12Z"/>
      <path class="st1" d="M115,645h229.8v119.8c0,6.6-5.4,12-12,12H127c-6.6,0-12-5.4-12-12v-119.8h0Z"/>
      <rect class="st1" x="491.5" y="331.2" width="60.6" height="154"/>
      <rect class="st1" x="552.1" y="331.2" width="59.1" height="154"/>
      <rect class="st1" x="611.2" y="331.2" width="59.1" height="154"/>
      <rect class="st1" x="670.4" y="331.2" width="59.1" height="154"/>
      <rect class="st1" x="729.5" y="331.2" width="77.2" height="154"/>
      <rect class="st1" x="806.7" y="331.2" width="75.8" height="154"/>
      <rect class="st1" x="882.5" y="331.2" width="75.8" height="154"/>
      <rect class="st1" x="958.3" y="331.2" width="75.8" height="154"/>
      <rect class="st1" x="1034.2" y="331.2" width="75.8" height="154"/>
      <polygon class="st1" points="1110 485.2 1110 331.2 1277.9 331.2 1110 485.2"/>
      <rect class="st1" x="652" y="807" width="61.5" height="156.9"/>
      <rect class="st1" x="590.5" y="807" width="61.5" height="156.9"/>
      <rect class="st1" x="523.7" y="807" width="66.8" height="156.9"/>
      <rect class="st1" x="474.1" y="807" width="49.7" height="156.9"/>
      <rect class="st1" x="409.8" y="807" width="64.3" height="156.9"/>
      <rect class="st1" x="349.5" y="807" width="60.2" height="156.9"/>
      <path class="st1" d="M127,807h48.2v114.3h-60.2v-102.3c0-6.6,5.4-12,12-12Z"/>
      <rect class="st1" x="175.2" y="807" width="60.2" height="114.3"/>
      <rect class="st1" x="235.5" y="807" width="57" height="114.3"/>
      <rect class="st1" x="292.5" y="807" width="57" height="114.3"/>
      <rect class="st1" x="713.5" y="807" width="70.7" height="156.9"/>
      <rect class="st1" x="784.1" y="807" width="75.8" height="156.9"/>
      <rect class="st1" x="860" y="807" width="75.8" height="156.9"/>
      <rect class="st1" x="935.8" y="807" width="75.8" height="156.9"/>
      <path class="st1" d="M1011.6,807h86.4c6.6,0,12,5.4,12,12v132.9c0,6.6-5.4,12-12,12h-86.4v-156.9h0Z"/>
    </g>
  </g>
</svg>