<?xml version="1.0" encoding="UTF-8"?>
<svg xmlns="http://www.w3.org/2000/svg" xmlns:xlink="http://www.w3.org/1999/xlink" version="1.1" viewBox="0 0 2088.9 1163.8">
  <!-- Generator: Adobe Illustrator 30.6.0, SVG Export Plug-In . SVG Version: 2.1.4 Build 109)  -->
  <defs>
    <style>
      .st0, .st1 {
        fill: none;
      }

      .st1 {
        stroke: #232020;
        stroke-miterlimit: 10;
      }

      .st2 {
        display: none;
      }

      .st3 {
        clip-path: url(#clippath);
      }
    </style>
    <clipPath id="clippath">
      <rect class="st0" x="11.4" y="63.1" width="1920" height="1080"/>
    </clipPath>
  </defs>
  <g id="Layer_1" class="st2">
    <g class="st3">
      <image width="1680" height="936" transform="scale(1.2)" xlink:href="mapa-loteo-editable-1.png"/>
    </g>
  </g>
  <g id="Layer_2">
    <rect class="st1" x="430.8" y="330.7" width="60.6" height="154"/>
    <path class="st1" d="M382.2,330.7h48.6v154h-48.6c-6.6,0-12-5.4-12-12v-130c0-6.6,5.4-12,12-12Z"/>
    <path class="st1" d="M382.2,512.6h71.5v65.9h-83.5v-53.9c0-6.6,5.4-12,12-12Z"/>
    <rect class="st1" x="453.7" y="512.6" width="83.5" height="131.8"/>
    <rect class="st1" x="537.2" y="512.6" width="83.5" height="131.8"/>
    <rect class="st1" x="453.7" y="644.5" width="83.5" height="131.8"/>
    <rect class="st1" x="537.2" y="644.5" width="83.5" height="131.8"/>
    <path class="st1" d="M620.7,512.6h71.5c6.6,0,12,5.4,12,12v53.9h-83.5v-65.9h0Z"/>
    <rect class="st1" x="620.7" y="578.5" width="83.5" height="65.9"/>
    <rect class="st1" x="620.7" y="644.5" width="83.5" height="65.9"/>
    <path class="st1" d="M620.7,710.4h83.5v53.9c0,6.6-5.4,12-12,12h-71.5v-65.9h0Z"/>
    <rect class="st1" x="370.2" y="578.5" width="83.5" height="65.9"/>
    <rect class="st1" x="370.2" y="644.5" width="83.5" height="65.9"/>
    <path class="st1" d="M370.2,710.4h83.5v65.9h-71.5c-6.6,0-12-5.4-12-12v-53.9h0Z"/>
    <path class="st1" d="M742.8,512.6h70.1v65.9h-82.1v-53.9c0-6.6,5.4-12,12-12Z"/>
    <rect class="st1" x="812.9" y="512.6" width="72.8" height="131.8"/>
    <rect class="st1" x="885.7" y="512.6" width="74.2" height="131.8"/>
    <rect class="st1" x="812.9" y="644.5" width="72.8" height="131.8"/>
    <rect class="st1" x="885.7" y="644.5" width="74.2" height="131.8"/>
    <rect class="st1" x="959.9" y="512.6" width="74.2" height="131.8"/>
    <rect class="st1" x="959.9" y="644.5" width="74.2" height="131.8"/>
    <path class="st1" d="M1034.1,512.6h63.8c6.6,0,12,5.4,12,12v53.9h-75.8v-65.9h0Z"/>
    <rect class="st1" x="1139.6" y="545.6" width="147.7" height="59.7"/>
    <path class="st1" d="M1287.3,545.6h-147.7v-29.3s.3-9,5.6-14.1c5.3-5.1,142.1-137,142.1-137v180.3Z"/>
    <rect class="st1" x="1139.6" y="605.3" width="147.7" height="59.7"/>
    <rect class="st1" x="1139.6" y="665" width="147.7" height="59.7"/>
    <rect class="st1" x="1139.6" y="724.6" width="147.7" height="65"/>
    <rect class="st1" x="1139.6" y="789.6" width="147.7" height="62.7"/>
    <rect class="st1" x="1139.6" y="852.3" width="147.7" height="59.7"/>
    <rect class="st1" x="1139.6" y="912" width="147.7" height="51.4"/>
    <rect class="st1" x="1034.1" y="578.5" width="75.8" height="65.9"/>
    <rect class="st1" x="1034.1" y="644.5" width="75.8" height="65.9"/>
    <path class="st1" d="M1034.1,710.4h75.8v53.9c0,6.6-5.4,12-12,12h-63.8v-65.9h0Z"/>
    <rect class="st1" x="730.8" y="578.5" width="82.1" height="65.9"/>
    <rect class="st1" x="730.8" y="644.5" width="82.1" height="65.9"/>
    <path class="st1" d="M730.8,710.4h82.1v65.9h-70.1c-6.6,0-12-5.4-12-12v-53.9h0Z"/>
    <rect class="st1" x="114.9" y="330.7" width="229.8" height="154" rx="12" ry="12"/>
    <path class="st1" d="M126.9,512.6h205.8c6.6,0,12,5.4,12,12v119.8H114.9v-119.8c0-6.6,5.4-12,12-12Z"/>
    <path class="st1" d="M114.9,644.5h229.8v119.8c0,6.6-5.4,12-12,12H126.9c-6.6,0-12-5.4-12-12v-119.8h0Z"/>
    <rect class="st1" x="491.4" y="330.7" width="60.6" height="154"/>
    <rect class="st1" x="552" y="330.7" width="59.1" height="154"/>
    <rect class="st1" x="611.1" y="330.7" width="59.1" height="154"/>
    <rect class="st1" x="670.3" y="330.7" width="59.1" height="154"/>
    <rect class="st1" x="729.4" y="330.7" width="77.2" height="154"/>
    <rect class="st1" x="806.6" y="330.7" width="75.8" height="154"/>
    <rect class="st1" x="882.4" y="330.7" width="75.8" height="154"/>
    <rect class="st1" x="958.2" y="330.7" width="75.8" height="154"/>
    <rect class="st1" x="1034.1" y="330.7" width="75.8" height="154"/>
    <polygon class="st1" points="1109.9 484.7 1109.9 330.7 1277.8 330.7 1109.9 484.7"/>
    <rect class="st1" x="651.9" y="806.5" width="61.5" height="156.9"/>
    <rect class="st1" x="590.4" y="806.5" width="61.5" height="156.9"/>
    <rect class="st1" x="523.6" y="806.5" width="66.8" height="156.9"/>
    <rect class="st1" x="474" y="806.5" width="49.7" height="156.9"/>
    <rect class="st1" x="409.7" y="806.5" width="64.3" height="156.9"/>
    <rect class="st1" x="349.4" y="806.5" width="60.2" height="156.9"/>
    <path class="st1" d="M126.9,806.5h48.2v114.3h-60.2v-102.3c0-6.6,5.4-12,12-12Z"/>
    <rect class="st1" x="175.1" y="806.5" width="60.2" height="114.3"/>
    <rect class="st1" x="235.4" y="806.5" width="57" height="114.3"/>
    <rect class="st1" x="292.4" y="806.5" width="57" height="114.3"/>
    <rect class="st1" x="713.4" y="806.5" width="70.7" height="156.9"/>
    <rect class="st1" x="784" y="806.5" width="75.8" height="156.9"/>
    <rect class="st1" x="859.9" y="806.5" width="75.8" height="156.9"/>
    <rect class="st1" x="935.7" y="806.5" width="75.8" height="156.9"/>
    <path class="st1" d="M1011.5,806.5h86.4c6.6,0,12,5.4,12,12v132.9c0,6.6-5.4,12-12,12h-86.4v-156.9h0Z"/>
  </g>
</svg>