<?xml version="1.0" encoding="UTF-8"?>
<svg xmlns="http://www.w3.org/2000/svg" xmlns:xlink="http://www.w3.org/1999/xlink" version="1.1" viewBox="0 0 2088.9 1163.8">
  <!-- Generator: Adobe Illustrator 30.6.0, SVG Export Plug-In . SVG Version: 2.1.4 Build 109)  -->
  <defs>
    <style>
      .st0 {
        fill: none;
      }

      .st1 {
        fill: #fff;
      }

      .st2 {
        display: none;
      }

      .st3 {
        clip-path: url(#clippath);
      }
    </style>
    <clipPath id="clippath">
      <rect class="st0" x="11.4" y="63.1" width="1920" height="1080"/>
    </clipPath>
  </defs>
  <g id="Layer_3">
    <rect class="st1" x="11.4" y="63.1" width="1920" height="1080"/>
  </g>
  <g id="Layer_1" class="st2">
    <g class="st3">
      <image width="1680" height="936" transform="scale(1.2)" xlink:href="mapa-loteo-editable-1.png"/>
    </g>
  </g>
  <g id="Layer_2">
    <g id="Layer_21" data-name="Layer_2">
      <g>
        <rect x="431.4" y="331.7" width="59.6" height="153"/>
        <path class="st1" d="M490.5,332.2v152h-58.6v-152h58.6M491.5,331.2h-60.6v154h60.6v-154h0Z"/>
      </g>
      <g>
        <path d="M382.3,484.7c-6.3,0-11.5-5.2-11.5-11.5v-130c0-6.3,5.2-11.5,11.5-11.5h48.1v153h-48.1Z"/>
        <path class="st1" d="M429.9,332.2v152h-47.6c-6.1,0-11-4.9-11-11v-130c0-6.1,4.9-11,11-11h47.6M430.9,331.2h-48.6c-6.6,0-12,5.4-12,12v130c0,6.6,5.4,12,12,12h48.6v-154h0Z"/>
      </g>
      <g>
        <path d="M370.8,578.5v-53.4c0-6.3,5.2-11.5,11.5-11.5h71v64.9h-82.5Z"/>
        <path class="st1" d="M452.8,514.1v63.9h-81.5v-52.9c0-6.1,4.9-11,11-11h70.5M453.8,513.1h-71.5c-6.6,0-12,5.4-12,12v53.9h83.5v-65.9h0Z"/>
      </g>
      <g>
        <rect x="454.3" y="513.6" width="82.5" height="130.8"/>
        <path class="st1" d="M536.3,514.1v129.8h-81.5v-129.8h81.5M537.3,513.1h-83.5v131.8h83.5v-131.8h0Z"/>
      </g>
      <g>
        <rect x="537.8" y="513.6" width="82.5" height="130.8"/>
        <path class="st1" d="M619.8,514.1v129.8h-81.5v-129.8h81.5M620.8,513.1h-83.5v131.8h83.5v-131.8h0Z"/>
      </g>
      <g>
        <rect x="454.3" y="645.5" width="82.5" height="130.8"/>
        <path class="st1" d="M536.3,646v129.8h-81.5v-129.8h81.5M537.3,645h-83.5v131.8h83.5v-131.8h0Z"/>
      </g>
      <g>
        <rect x="537.8" y="645.5" width="82.5" height="130.8"/>
        <path class="st1" d="M619.8,646v129.8h-81.5v-129.8h81.5M620.8,645h-83.5v131.8h83.5v-131.8h0Z"/>
      </g>
      <g>
        <path d="M621.3,578.5v-64.9h71c6.3,0,11.5,5.2,11.5,11.5v53.4h-82.5Z"/>
        <path class="st1" d="M692.3,514.1c6.1,0,11,4.9,11,11v52.9h-81.5v-63.9h70.5M692.3,513.1h-71.5v65.9h83.5v-53.9c0-6.6-5.4-12-12-12h0Z"/>
      </g>
      <g>
        <rect x="621.3" y="579.5" width="82.5" height="64.9"/>
        <path class="st1" d="M703.3,580v63.9h-81.5v-63.9h81.5M704.3,579h-83.5v65.9h83.5v-65.9h0Z"/>
      </g>
      <g>
        <rect x="621.3" y="645.5" width="82.5" height="64.9"/>
        <path class="st1" d="M703.3,646v63.9h-81.5v-63.9h81.5M704.3,645h-83.5v65.9h83.5v-65.9h0Z"/>
      </g>
      <g>
        <path d="M621.3,776.3v-64.9h82.5v53.4c0,6.3-5.2,11.5-11.5,11.5h-71Z"/>
        <path class="st1" d="M703.3,711.9v52.9c0,6.1-4.9,11-11,11h-70.5v-63.9h81.5M704.3,710.9h-83.5v65.9h71.5c6.6,0,12-5.4,12-12v-53.9h0Z"/>
      </g>
      <g>
        <rect x="370.8" y="579.5" width="82.5" height="64.9"/>
        <path class="st1" d="M452.8,580v63.9h-81.5v-63.9h81.5M453.8,579h-83.5v65.9h83.5v-65.9h0Z"/>
      </g>
      <g>
        <rect x="370.8" y="645.5" width="82.5" height="64.9"/>
        <path class="st1" d="M452.8,646v63.9h-81.5v-63.9h81.5M453.8,645h-83.5v65.9h83.5v-65.9h0Z"/>
      </g>
      <g>
        <path d="M382.3,776.3c-6.3,0-11.5-5.2-11.5-11.5v-53.4h82.5v64.9h-71Z"/>
        <path class="st1" d="M452.8,711.9v63.9h-70.5c-6.1,0-11-4.9-11-11v-52.9h81.5M453.8,710.9h-83.5v53.9c0,6.6,5.4,12,12,12h71.5v-65.9h0Z"/>
      </g>
      <g>
        <path d="M731.4,578.5v-53.4c0-6.3,5.2-11.5,11.5-11.5h69.6v64.9h-81.1Z"/>
        <path class="st1" d="M812,514.1v63.9h-80.1v-52.9c0-6.1,4.9-11,11-11h69.1M813,513.1h-70.1c-6.6,0-12,5.4-12,12v53.9h82.1v-65.9h0Z"/>
      </g>
      <g>
        <rect x="813.5" y="513.6" width="71.8" height="130.8"/>
        <path class="st1" d="M884.8,514.1v129.8h-70.8v-129.8h70.8M885.8,513.1h-72.8v131.8h72.8v-131.8h0Z"/>
      </g>
      <g>
        <rect x="886.3" y="513.6" width="73.2" height="130.8"/>
        <path class="st1" d="M959,514.1v129.8h-72.2v-129.8h72.2M960,513.1h-74.2v131.8h74.2v-131.8h0Z"/>
      </g>
      <g>
        <rect x="813.5" y="645.5" width="71.8" height="130.8"/>
        <path class="st1" d="M884.8,646v129.8h-70.8v-129.8h70.8M885.8,645h-72.8v131.8h72.8v-131.8h0Z"/>
      </g>
      <g>
        <rect x="886.3" y="645.5" width="73.2" height="130.8"/>
        <path class="st1" d="M959,646v129.8h-72.2v-129.8h72.2M960,645h-74.2v131.8h74.2v-131.8h0Z"/>
      </g>
      <g>
        <rect x="960.5" y="513.6" width="73.2" height="130.8"/>
        <path class="st1" d="M1033.2,514.1v129.8h-72.2v-129.8h72.2M1034.2,513.1h-74.2v131.8h74.2v-131.8h0Z"/>
      </g>
      <g>
        <rect x="960.5" y="645.5" width="73.2" height="130.8"/>
        <path class="st1" d="M1033.2,646v129.8h-72.2v-129.8h72.2M1034.2,645h-74.2v131.8h74.2v-131.8h0Z"/>
      </g>
      <g>
        <path d="M1034.7,578.5v-64.9h63.3c6.3,0,11.5,5.2,11.5,11.5v53.4h-74.8Z"/>
        <path class="st1" d="M1098,514.1c6.1,0,11,4.9,11,11v52.9h-73.8v-63.9h62.8M1098,513.1h-63.8v65.9h75.8v-53.9c0-6.6-5.4-12-12-12h0Z"/>
      </g>
      <g>
        <rect x="1140.2" y="546.6" width="146.7" height="58.7"/>
        <path class="st1" d="M1286.4,547.1v57.7h-145.7v-57.7h145.7M1287.4,546.1h-147.7v59.7h147.7v-59.7h0Z"/>
      </g>
      <g>
        <path d="M1140.2,545.6v-28.8c0,0,.4-8.8,5.4-13.7,5-4.8,129.8-117.8,141.3-128.2v170.8h-146.7Z"/>
        <path class="st1" d="M1286.4,375.9v169.1h-145.7v-28.3c0,0,.4-8.7,5.3-13.4,4.9-4.7,124.8-113.3,140.4-127.5M1287.4,373.7s-136.8,123.9-142.1,129c-5.3,5.1-5.6,14.1-5.6,14.1v29.3h147.7v-172.4h0Z"/>
      </g>
      <g>
        <rect x="1140.2" y="606.3" width="146.7" height="58.7"/>
        <path class="st1" d="M1286.4,606.8v57.7h-145.7v-57.7h145.7M1287.4,605.8h-147.7v59.7h147.7v-59.7h0Z"/>
      </g>
      <g>
        <rect x="1140.2" y="666" width="146.7" height="58.7"/>
        <path class="st1" d="M1286.4,666.5v57.7h-145.7v-57.7h145.7M1287.4,665.5h-147.7v59.7h147.7v-59.7h0Z"/>
      </g>
      <g>
        <rect x="1140.2" y="725.6" width="146.7" height="64"/>
        <path class="st1" d="M1286.4,726.1v63h-145.7v-63h145.7M1287.4,725.1h-147.7v65h147.7v-65h0Z"/>
      </g>
      <g>
        <rect x="1140.2" y="790.6" width="146.7" height="61.7"/>
        <path class="st1" d="M1286.4,791.1v60.7h-145.7v-60.7h145.7M1287.4,790.1h-147.7v62.7h147.7v-62.7h0Z"/>
      </g>
      <g>
        <rect x="1140.2" y="853.3" width="146.7" height="58.7"/>
        <path class="st1" d="M1286.4,853.8v57.7h-145.7v-57.7h145.7M1287.4,852.8h-147.7v59.7h147.7v-59.7h0Z"/>
      </g>
      <g>
        <rect x="1140.2" y="913" width="146.7" height="50.4"/>
        <path class="st1" d="M1286.4,913.5v49.4h-145.7v-49.4h145.7M1287.4,912.5h-147.7v51.4h147.7v-51.4h0Z"/>
      </g>
      <g>
        <rect x="1034.7" y="579.5" width="74.8" height="64.9"/>
        <path class="st1" d="M1109,580v63.9h-73.8v-63.9h73.8M1110,579h-75.8v65.9h75.8v-65.9h0Z"/>
      </g>
      <g>
        <rect x="1034.7" y="645.5" width="74.8" height="64.9"/>
        <path class="st1" d="M1109,646v63.9h-73.8v-63.9h73.8M1110,645h-75.8v65.9h75.8v-65.9h0Z"/>
      </g>
      <g>
        <path d="M1034.7,776.3v-64.9h74.8v53.4c0,6.3-5.2,11.5-11.5,11.5h-63.3Z"/>
        <path class="st1" d="M1109,711.9v52.9c0,6.1-4.9,11-11,11h-62.8v-63.9h73.8M1110,710.9h-75.8v65.9h63.8c6.6,0,12-5.4,12-12v-53.9h0Z"/>
      </g>
      <g>
        <rect x="731.4" y="579.5" width="81.1" height="64.9"/>
        <path class="st1" d="M812,580v63.9h-80.1v-63.9h80.1M813,579h-82.1v65.9h82.1v-65.9h0Z"/>
      </g>
      <g>
        <rect x="731.4" y="645.5" width="81.1" height="64.9"/>
        <path class="st1" d="M812,646v63.9h-80.1v-63.9h80.1M813,645h-82.1v65.9h82.1v-65.9h0Z"/>
      </g>
      <g>
        <path d="M742.9,776.3c-6.3,0-11.5-5.2-11.5-11.5v-53.4h81.1v64.9h-69.6Z"/>
        <path class="st1" d="M812,711.9v63.9h-69.1c-6.1,0-11-4.9-11-11v-52.9h80.1M813,710.9h-82.1v53.9c0,6.6,5.4,12,12,12h70.1v-65.9h0Z"/>
      </g>
      <g>
        <rect x="115.5" y="331.7" width="228.8" height="153" rx="11.5" ry="11.5"/>
        <path class="st1" d="M332.8,332.2c6.1,0,11,4.9,11,11v130c0,6.1-4.9,11-11,11H127c-6.1,0-11-4.9-11-11v-130c0-6.1,4.9-11,11-11h205.8M332.8,331.2H127c-6.6,0-12,5.4-12,12v130c0,6.6,5.4,12,12,12h205.8c6.6,0,12-5.4,12-12v-130c0-6.6-5.4-12-12-12h0Z"/>
      </g>
      <g>
        <path d="M115.5,644.4v-119.3c0-6.3,5.2-11.5,11.5-11.5h205.8c6.3,0,11.5,5.2,11.5,11.5v119.3H115.5Z"/>
        <path class="st1" d="M332.8,514.1c6.1,0,11,4.9,11,11v118.8H116v-118.8c0-6.1,4.9-11,11-11h205.8M332.8,513.1H127c-6.6,0-12,5.4-12,12v119.8h229.8v-119.8c0-6.6-5.4-12-12-12h0Z"/>
      </g>
      <g>
        <path d="M127,776.3c-6.3,0-11.5-5.2-11.5-11.5v-119.3h228.8v119.3c0,6.3-5.2,11.5-11.5,11.5H127Z"/>
        <path class="st1" d="M343.8,646v118.8c0,6.1-4.9,11-11,11H127c-6.1,0-11-4.9-11-11v-118.8h227.8M344.8,645H115v119.8c0,6.6,5.4,12,12,12h205.8c6.6,0,12-5.4,12-12v-119.8h0Z"/>
      </g>
      <g>
        <rect x="492" y="331.7" width="59.6" height="153"/>
        <path class="st1" d="M551.1,332.2v152h-58.6v-152h58.6M552.1,331.2h-60.6v154h60.6v-154h0Z"/>
      </g>
      <g>
        <rect x="552.6" y="331.7" width="58.1" height="153"/>
        <path class="st1" d="M610.2,332.2v152h-57.1v-152h57.1M611.2,331.2h-59.1v154h59.1v-154h0Z"/>
      </g>
      <g>
        <rect x="611.7" y="331.7" width="58.1" height="153"/>
        <path class="st1" d="M669.3,332.2v152h-57.1v-152h57.1M670.3,331.2h-59.1v154h59.1v-154h0Z"/>
      </g>
      <g>
        <rect x="670.9" y="331.7" width="58.1" height="153"/>
        <path class="st1" d="M728.5,332.2v152h-57.1v-152h57.1M729.5,331.2h-59.1v154h59.1v-154h0Z"/>
      </g>
      <g>
        <rect x="730" y="331.7" width="76.2" height="153"/>
        <path class="st1" d="M805.7,332.2v152h-75.2v-152h75.2M806.7,331.2h-77.2v154h77.2v-154h0Z"/>
      </g>
      <g>
        <rect x="807.2" y="331.7" width="74.8" height="153"/>
        <path class="st1" d="M881.5,332.2v152h-73.8v-152h73.8M882.5,331.2h-75.8v154h75.8v-154h0Z"/>
      </g>
      <g>
        <rect x="883" y="331.7" width="74.8" height="153"/>
        <path class="st1" d="M957.3,332.2v152h-73.8v-152h73.8M958.3,331.2h-75.8v154h75.8v-154h0Z"/>
      </g>
      <g>
        <rect x="958.8" y="331.7" width="74.8" height="153"/>
        <path class="st1" d="M1033.1,332.2v152h-73.8v-152h73.8M1034.1,331.2h-75.8v154h75.8v-154h0Z"/>
      </g>
      <g>
        <rect x="1034.7" y="331.7" width="74.8" height="153"/>
        <path class="st1" d="M1109,332.2v152h-73.8v-152h73.8M1110,331.2h-75.8v154h75.8v-154h0Z"/>
      </g>
      <g>
        <polygon points="1110.5 331.7 1276.6 331.7 1110.5 484 1110.5 331.7"/>
        <path class="st1" d="M1275.3,332.2l-164.3,150.7v-150.7h164.3M1277.9,331.2h-167.9v154l167.9-154h0Z"/>
      </g>
      <g>
        <rect x="652.5" y="807.5" width="60.5" height="155.9"/>
        <path class="st1" d="M712.5,808v154.9h-59.5v-154.9h59.5M713.5,807h-61.5v156.9h61.5v-156.9h0Z"/>
      </g>
      <g>
        <rect x="591" y="807.5" width="60.5" height="155.9"/>
        <path class="st1" d="M651,808v154.9h-59.5v-154.9h59.5M652,807h-61.5v156.9h61.5v-156.9h0Z"/>
      </g>
      <g>
        <rect x="524.2" y="807.5" width="65.8" height="155.9"/>
        <path class="st1" d="M589.5,808v154.9h-64.8v-154.9h64.8M590.5,807h-66.8v156.9h66.8v-156.9h0Z"/>
      </g>
      <g>
        <rect x="474.6" y="807.5" width="48.7" height="155.9"/>
        <path class="st1" d="M522.8,808v154.9h-47.7v-154.9h47.7M523.8,807h-49.7v156.9h49.7v-156.9h0Z"/>
      </g>
      <g>
        <rect x="410.3" y="807.5" width="63.3" height="155.9"/>
        <path class="st1" d="M473.1,808v154.9h-62.3v-154.9h62.3M474.1,807h-64.3v156.9h64.3v-156.9h0Z"/>
      </g>
      <g>
        <rect x="350" y="807.5" width="59.2" height="155.9"/>
        <path class="st1" d="M408.7,808v154.9h-58.2v-154.9h58.2M409.7,807h-60.2v156.9h60.2v-156.9h0Z"/>
      </g>
      <g>
        <path d="M115.5,920.8v-101.8c0-6.3,5.2-11.5,11.5-11.5h47.7v113.3h-59.2Z"/>
        <path class="st1" d="M174.2,808v112.3h-58.2v-101.3c0-6.1,4.9-11,11-11h47.2M175.2,807h-48.2c-6.6,0-12,5.4-12,12v102.3h60.2v-114.3h0Z"/>
      </g>
      <g>
        <rect x="175.7" y="807.5" width="59.2" height="113.3"/>
        <path class="st1" d="M234.4,808v112.3h-58.2v-112.3h58.2M235.4,807h-60.2v114.3h60.2v-114.3h0Z"/>
      </g>
      <g>
        <rect x="236" y="807.5" width="56" height="113.3"/>
        <path class="st1" d="M291.5,808v112.3h-55v-112.3h55M292.5,807h-57v114.3h57v-114.3h0Z"/>
      </g>
      <g>
        <rect x="293" y="807.5" width="56" height="113.3"/>
        <path class="st1" d="M348.5,808v112.3h-55v-112.3h55M349.5,807h-57v114.3h57v-114.3h0Z"/>
      </g>
      <g>
        <rect x="714" y="807.5" width="69.7" height="155.9"/>
        <path class="st1" d="M783.2,808v154.9h-68.7v-154.9h68.7M784.2,807h-70.7v156.9h70.7v-156.9h0Z"/>
      </g>
      <g>
        <rect x="784.6" y="807.5" width="74.8" height="155.9"/>
        <path class="st1" d="M858.9,808v154.9h-73.8v-154.9h73.8M859.9,807h-75.8v156.9h75.8v-156.9h0Z"/>
      </g>
      <g>
        <rect x="860.5" y="807.5" width="74.8" height="155.9"/>
        <path class="st1" d="M934.8,808v154.9h-73.8v-154.9h73.8M935.8,807h-75.8v156.9h75.8v-156.9h0Z"/>
      </g>
      <g>
        <rect x="936.3" y="807.5" width="74.8" height="155.9"/>
        <path class="st1" d="M1010.6,808v154.9h-73.8v-154.9h73.8M1011.6,807h-75.8v156.9h75.8v-156.9h0Z"/>
      </g>
      <g>
        <path d="M1012.1,963.4v-155.9h85.9c6.3,0,11.5,5.2,11.5,11.5v132.9c0,6.3-5.2,11.5-11.5,11.5h-85.9Z"/>
        <path class="st1" d="M1098,808c6.1,0,11,4.9,11,11v132.9c0,6.1-4.9,11-11,11h-85.4v-154.9h85.4M1098,807h-86.4v156.9h86.4c6.6,0,12-5.4,12-12v-132.9c0-6.6-5.4-12-12-12h0Z"/>
      </g>
    </g>
  </g>
</svg>